<?xml version="1.0" encoding="UTF-8"?>
<!DOCTYPE svg PUBLIC "-//W3C//DTD SVG 1.1//EN" "http://www.w3.org/Graphics/SVG/1.1/DTD/svg11.dtd">
<!-- Creator: CorelDRAW 2019 (64 Bit) -->
<svg xmlns="http://www.w3.org/2000/svg" xml:space="preserve" width="22.0119mm" height="21.5999mm" version="1.1" style="shape-rendering:geometricPrecision; text-rendering:geometricPrecision; image-rendering:optimizeQuality; fill-rule:evenodd; clip-rule:evenodd"
viewBox="0 0 980.69 962.34"
 xmlns:xlink="http://www.w3.org/1999/xlink">
 <defs>
  <style type="text/css">
   <![CDATA[
    .fil0 {fill:#0E81ED}
    .fil1 {fill:white}
   ]]>
  </style>
 </defs>
 <g id="Camada_x0020_1">
  <metadata id="CorelCorpID_0Corel-Layer"/>
  <path class="fil0" d="M441.29 398.36c0.51,22.75 25.52,82.93 38.07,102.92 5.89,9.38 52.92,76.52 68.13,76.52 12.84,0 39.71,-25.64 58.6,-25.64 10.26,0 21.67,6.91 26.45,13.83l44.63 76.22c5.64,9.21 10.34,17.79 8.31,29.49 -3.48,20.1 -16.72,24.35 -28.89,31.67 -56.42,33.94 -121.83,-0.07 -165.45,-38.09 -12.76,-11.12 -28.7,-24.74 -39.14,-37.77l-26.13 -32.47c-58.25,-83.89 -135.03,-224.78 -72.51,-319.41 15.79,-23.91 65.9,-68.36 92.71,-32.23l42.49 72.88c3.93,6.46 10.31,17.54 10.87,25.65 1.59,23.36 -19.7,33.25 -34.43,41.67l-23.72 14.74zm-393.68 -325.94l0 95.21c0,40.98 53.48,15.92 108.89,24.78 17.93,2.86 33.46,9.74 44.92,22.83 9.48,10.82 20.14,27.48 20.14,47.61l0 87.89c0,30.63 -28.11,60.87 -65.06,66.78 -54.93,8.79 -108.89,-16.11 -108.89,24.78l0 97.05c0,57.73 94.61,6.72 142.08,42.86l17.7 17.1c6.6,8.14 14.18,26.01 14.18,37.09l0 87.89c0,35.09 -28.14,64.53 -65.06,70.44 -50.06,8.01 -108.89,-15.77 -108.89,28.44l0 91.56c0,23.53 23.93,47.61 47.61,47.61l717.79 0c23.68,0 47.61,-24.08 47.61,-47.61l0 -562.1c-15.25,3.92 -31.23,6.01 -47.7,6.01 -105.41,0 -190.86,-85.45 -190.86,-190.86 0,-56.91 24.92,-108 64.43,-142.97l-591.27 0c-23.68,0 -47.61,24.08 -47.61,47.61z"/>
  <path class="fil0" d="M-0 272.01l0 65.92c0,18.72 14.01,29.3 32.96,29.3l98.88 0c39.82,0 31.13,-50.3 31.13,-89.73 0,-22.45 -12.34,-34.79 -34.79,-34.79l-93.39 0c-19.56,0 -34.79,9.85 -34.79,29.3z"/>
  <path class="fil0" d="M3.66 649.22l0 65.92c0,17.66 14.93,27.46 32.96,27.46l87.89 0c18.96,0 34.79,-9.81 34.79,-29.29l0 -62.26c0,-18.72 -14.01,-29.3 -32.96,-29.3l-89.72 0c-18.33,0 -32.96,9.52 -32.96,27.47z"/>
  <circle class="fil0" cx="812.91" cy="167.78" r="167.78"/>
  <g id="_1979109513584">
   <rect class="fil1" x="785.98" y="41.72" width="53.87" height="252.11" rx="13.78" ry="17.64"/>
   <rect class="fil1" transform="matrix(5.67355E-15 0.214221 -0.274196 7.26196E-15 938.971 140.845)" width="251.47" height="919.46" rx="64.35" ry="64.35"/>
  </g>
 </g>
</svg>
