<?xml version="1.0" encoding="UTF-8"?>
<!DOCTYPE svg PUBLIC "-//W3C//DTD SVG 1.1//EN" "http://www.w3.org/Graphics/SVG/1.1/DTD/svg11.dtd">
<!-- Creator: CorelDRAW 2019 (64 Bit) -->
<svg xmlns="http://www.w3.org/2000/svg" xml:space="preserve" width="28.1408mm" height="21.3834mm" version="1.1" style="shape-rendering:geometricPrecision; text-rendering:geometricPrecision; image-rendering:optimizeQuality; fill-rule:evenodd; clip-rule:evenodd"
viewBox="0 0 1487.24 1130.11"
 xmlns:xlink="http://www.w3.org/1999/xlink">
 <defs>
  <style type="text/css">
   <![CDATA[
    .fil0 {fill:#0E81ED}
   ]]>
  </style>
 </defs>
 <g id="Camada_x0020_1">
  <metadata id="CorelCorpID_0Corel-Layer"/>
  <path class="fil0" d="M107.76 0l1271.71 0c59.28,0 107.77,48.49 107.77,107.76l0 914.59c0,59.27 -48.49,107.76 -107.77,107.76l-1271.71 0c-59.28,0 -107.76,-48.49 -107.76,-107.76l0 -914.59c0,-59.27 48.48,-107.76 107.76,-107.76zm88.52 117.95l508.43 407.06c22.98,18.4 54.84,18.4 77.83,0l508.43 -407.06c-1.24,-0.05 -2.48,-0.08 -3.73,-0.08l-1087.22 0c-1.24,0 -2.49,0.04 -3.73,0.08zm1182.24 113.81c-199.57,150.51 -399.14,301.04 -598.72,451.54 -22.7,17.12 -52.9,17.09 -75.56,-0.1l-595.52 -451.44 0 689.21c0,50.2 41.07,91.28 91.28,91.28l1087.22 0c50.21,0 91.29,-41.07 91.29,-91.28l0 -689.21z"/>
 </g>
</svg>
