<?xml version="1.0" encoding="UTF-8"?>
<!DOCTYPE svg PUBLIC "-//W3C//DTD SVG 1.1//EN" "http://www.w3.org/Graphics/SVG/1.1/DTD/svg11.dtd">
<!-- Creator: CorelDRAW 2019 (64 Bit) -->
<svg xmlns="http://www.w3.org/2000/svg" xml:space="preserve" width="20.9566mm" height="20.9566mm" version="1.1" style="shape-rendering:geometricPrecision; text-rendering:geometricPrecision; image-rendering:optimizeQuality; fill-rule:evenodd; clip-rule:evenodd"
viewBox="0 0 905.49 905.49"
 xmlns:xlink="http://www.w3.org/1999/xlink">
 <defs>
  <style type="text/css">
   <![CDATA[
    .fil0 {fill:#0E81ED}
   ]]>
  </style>
 </defs>
 <g id="Camada_x0020_1">
  <metadata id="CorelCorpID_0Corel-Layer"/>
  <g id="_1943966885168">
   <path class="fil0" d="M81.35 661.44l0 -417.38c0,-85.67 77.04,-162.7 162.7,-162.7l417.38 0c85.67,0 162.7,77.04 162.7,162.7l0 417.38c0,85.67 -77.04,162.7 -162.7,162.7l-417.38 0c-85.67,0 -162.7,-77.04 -162.7,-162.7zm-81.35 -426.22l0 435.06c0,28.01 12.2,68.76 24.17,92.56l34.64 53.79c20.69,21.69 15.79,20.11 45.77,42.66 31.15,23.43 90.25,46.21 130.64,46.21l435.06 0c28.01,0 68.75,-12.2 92.56,-24.17 68.04,-34.2 112.12,-84.94 134.03,-159.54 3.64,-12.38 8.63,-35.53 8.63,-51.5l0 -435.06c0,-15.05 -4.54,-37.48 -8.21,-50.15 -17.41,-59.92 -47.39,-102.02 -96.36,-138.86 -21.28,-16 -52.91,-29.88 -79.14,-37.58 -12.38,-3.64 -35.53,-8.63 -51.5,-8.63l-435.06 0c-15.05,0 -37.48,4.54 -50.15,8.21 -26.57,7.72 -57.84,21.2 -79.49,37.23 -6.28,4.65 -11.15,8.06 -16.7,13.36l-29.19 29.17c-31.78,34.16 -59.68,100.57 -59.68,147.24z"/>
   <path class="fil0" d="M300.65 459.82c0,-36.11 6.87,-66.61 27.26,-94.77 26.49,-36.6 71.66,-64.4 117.76,-64.4 48.05,0 81.91,12.06 114.51,44.66 12.16,12.16 23.58,25.71 30.28,42.24 19.65,48.49 19.65,81.92 0,130.41 -11.24,27.74 -45.81,61.71 -72.51,72.51 -48.53,19.63 -81.87,19.66 -130.41,0 -21.5,-8.72 -45.43,-30.79 -58.88,-49.01 -15.03,-20.36 -28.02,-54.4 -28.02,-81.64zm-81.35 -19.45c0,28.6 -0.54,43.04 7.43,72.16 6.97,25.48 20.1,53.57 35.02,74.62 24.09,33.98 52.9,57.35 90.19,76.05 12.44,6.23 24.43,10.86 39.63,15.19 37.5,10.68 83.39,10.65 120.96,0.38 52.93,-14.47 98.54,-46.5 130.48,-90.59 8.16,-11.26 13.98,-22.23 20.2,-34.63 62.95,-125.58 -4.02,-284.73 -149.56,-326.18 -66.39,-18.91 -139.87,-4.93 -195.3,34.37 -20.85,14.78 -40.74,34.7 -55.85,55.56 -22.87,31.57 -43.19,82.96 -43.19,123.06z"/>
   <path class="fil0" d="M636.68 208.69c0,19.06 5.35,30.91 16.32,42.04 5.65,5.74 6.96,7.86 14.85,11.67 41.7,20.16 87.32,-7.58 87.32,-53.72 0,-32.27 -27.64,-57.19 -58.52,-58.05 -18.01,-0.5 -33.97,9.01 -43.9,19.3l-10.24 14.52c-3.11,6.68 -5.84,15.13 -5.84,24.23z"/>
  </g>
 </g>
</svg>
