<?xml version="1.0" encoding="UTF-8"?>
<!DOCTYPE svg PUBLIC "-//W3C//DTD SVG 1.1//EN" "http://www.w3.org/Graphics/SVG/1.1/DTD/svg11.dtd">
<!-- Creator: CorelDRAW 2019 (64 Bit) -->
<svg xmlns="http://www.w3.org/2000/svg" xml:space="preserve" width="22.1447mm" height="22.1579mm" version="1.1" style="shape-rendering:geometricPrecision; text-rendering:geometricPrecision; image-rendering:optimizeQuality; fill-rule:evenodd; clip-rule:evenodd"
viewBox="0 0 817.63 818.12"
 xmlns:xlink="http://www.w3.org/1999/xlink">
 <defs>
  <style type="text/css">
   <![CDATA[
    .fil0 {fill:#0E81ED}
   ]]>
  </style>
 </defs>
 <g id="Camada_x0020_1">
  <metadata id="CorelCorpID_0Corel-Layer"/>
  <g id="_1978965281120">
   <path class="fil0" d="M99.76 720.91c5.04,-25.8 20.29,-74.39 28.65,-103.29 9.82,-33.95 -38.76,-45.53 -54.98,-161.34 -40.97,-292.54 284.44,-491.85 524.47,-330.07 36.6,24.67 63.58,52.31 89.11,86.91 111.96,151.73 67.77,380.71 -100.23,483.58 -107.53,65.83 -239.49,67.63 -348.75,4.28 -22.93,-13.3 -14.56,-11.99 -65.84,1.66 -23.94,6.37 -48.45,13.73 -72.44,18.27zm-99.76 97.21l172.79 -43.87c52.71,-13.93 34.97,-7.11 79.35,10.99 88.85,36.25 187.55,41.73 278.53,13.03 161.75,-51.02 277.56,-196.63 286.42,-368.16 7,-135.56 -54.59,-250.2 -121.19,-312.73 -88.35,-82.94 -186.32,-123.62 -316.84,-116.6 -58.38,3.14 -123.45,24.87 -166.8,49.35 -18.87,10.65 -50.11,31.02 -65.28,44.48l-28.71 26.07c-82.95,89.69 -139.37,216.11 -109.9,366.44 10.18,51.95 21.75,76.23 43.73,118.73 7.25,14.02 0.22,24.85 -4.28,41.13 -15.32,55.44 -35.4,115.9 -47.82,171.14z"/>
   <path class="fil0" d="M255.77 218.58c-17.58,6.32 -42.59,38.42 -49.01,61.54 -16.5,59.48 19.19,121.47 52.67,164.01 27.35,34.76 24.7,29.37 53.52,58.56 16.9,17.12 39.44,34.24 61.63,48.04 24.75,15.39 44.15,25.45 74.72,37.31 131.28,50.9 172.66,-47.32 167.91,-80.62 -1.83,-12.81 -50.93,-30.61 -70.71,-39.53 -43.18,-19.45 -31.99,-20.94 -64.97,20.63 -9.91,12.49 -12.83,24.58 -31.85,17.04 -37.03,-14.7 -75,-39.84 -100.7,-66.38 -5.35,-5.52 -7.31,-9.82 -12.05,-15.42 -46.43,-54.87 -28.19,-51.33 -1.75,-83.89 17.72,-21.82 8.95,-25.47 -13.81,-78.83 -3.28,-7.7 -13.35,-33.48 -17.14,-37.76 -7.7,-8.67 -36.38,-9.07 -48.45,-4.73z"/>
  </g>
 </g>
</svg>
